<svg xmlns="http://www.w3.org/2000/svg" viewBox="0 0 96 96" role="img" aria-label="vibe bonsai medium tree idle animation">
  <style>
    svg { overflow: visible; image-rendering: pixelated; shape-rendering: crispEdges; }
    .float { transform-origin: 48px 78px; animation: float-medium 2.25s steps(2, end) infinite; }
    .leaves { transform-origin: 48px 43px; }
    .trunk { transform-origin: 48px 68px; }
    .shadow { transform-origin: 48px 84px; animation: shadow-medium 2.25s steps(2, end) infinite; }
    @keyframes float-medium {
      0%, 100% { transform: translateY(0); }
      50% { transform: translateY(-1px); }
    }
    @keyframes leaves-medium {
      0%, 100% { transform: translateX(0); }
      50% { transform: translateX(1px); }
    }
    @keyframes trunk-medium {
      0%, 100% { transform: scaleY(1); }
      50% { transform: scaleY(0.992); }
    }
    @keyframes shadow-medium {
      0%, 100% { opacity: 0.18; transform: scaleX(1); }
      50% { opacity: 0.12; transform: scaleX(0.94); }
    }
  </style>
  <rect width="96" height="96" fill="none"/>
  <ellipse class="shadow" cx="48" cy="84" rx="22" ry="4" fill="#000000"/>
  <g class="float">
    <g class="island">
      <rect x="49" y="68" width="3" height="1" fill="#070807"/>
      <rect x="44" y="68" width="1" height="1" fill="#070807"/>
      <rect x="19" y="68" width="2" height="5" fill="#070807"/>
      <rect x="75" y="68" width="2" height="5" fill="#070807"/>
      <rect x="70" y="73" width="2" height="1" fill="#54321f"/>
      <rect x="73" y="73" width="1" height="1" fill="#54321f"/>
      <rect x="22" y="73" width="4" height="1" fill="#54321f"/>
      <rect x="72" y="73" width="1" height="1" fill="#070807"/>
      <rect x="22" y="74" width="7" height="2" fill="#54321f"/>
      <rect x="67" y="74" width="3" height="2" fill="#070807"/>
      <rect x="70" y="74" width="4" height="2" fill="#54321f"/>
      <rect x="65" y="76" width="9" height="1" fill="#54321f"/>
      <rect x="64" y="76" width="1" height="1" fill="#070807"/>
      <rect x="26" y="76" width="38" height="1" fill="#54321f"/>
      <rect x="19" y="73" width="3" height="5" fill="#070807"/>
      <rect x="26" y="77" width="37" height="1" fill="#54321f"/>
      <rect x="22" y="76" width="4" height="2" fill="#8e572d"/>
      <rect x="74" y="73" width="3" height="5" fill="#070807"/>
      <rect x="64" y="77" width="10" height="1" fill="#54321f"/>
      <rect x="63" y="77" width="1" height="1" fill="#070807"/>
      <rect x="29" y="78" width="41" height="2" fill="#54321f"/>
      <rect x="70" y="78" width="5" height="2" fill="#070807"/>
      <rect x="24" y="78" width="2" height="2" fill="#54321f"/>
      <rect x="26" y="78" width="3" height="2" fill="#8e572d"/>
      <rect x="43" y="80" width="3" height="1" fill="#8e572d"/>
      <rect x="67" y="80" width="1" height="1" fill="#292b26"/>
      <rect x="33" y="80" width="10" height="1" fill="#54321f"/>
      <rect x="68" y="80" width="7" height="1" fill="#070807"/>
      <rect x="24" y="80" width="5" height="2" fill="#292b26"/>
      <rect x="41" y="81" width="5" height="1" fill="#8e572d"/>
      <rect x="46" y="80" width="21" height="2" fill="#54321f"/>
      <rect x="31" y="80" width="2" height="2" fill="#8e572d"/>
      <rect x="21" y="78" width="3" height="4" fill="#070807"/>
      <rect x="33" y="81" width="8" height="1" fill="#54321f"/>
      <rect x="29" y="80" width="2" height="2" fill="#54321f"/>
      <rect x="67" y="81" width="8" height="1" fill="#070807"/>
      <rect x="29" y="82" width="37" height="1" fill="#292b26"/>
      <rect x="66" y="82" width="6" height="1" fill="#070807"/>
      <rect x="72" y="82" width="3" height="1" fill="#55564e"/>
      <rect x="21" y="82" width="3" height="1" fill="#55564e"/>
      <rect x="29" y="83" width="35" height="1" fill="#292b26"/>
      <rect x="68" y="83" width="4" height="1" fill="#070807"/>
      <rect x="64" y="83" width="3" height="1" fill="#070807"/>
      <rect x="67" y="83" width="1" height="1" fill="#292b26"/>
      <rect x="29" y="84" width="34" height="1" fill="#292b26"/>
      <rect x="24" y="82" width="5" height="3" fill="#070807"/>
      <rect x="63" y="84" width="9" height="1" fill="#070807"/>
      <rect x="62" y="85" width="6" height="1" fill="#070807"/>
      <rect x="33" y="85" width="29" height="1" fill="#292b26"/>
      <rect x="33" y="86" width="30" height="1" fill="#292b26"/>
      <rect x="28" y="85" width="5" height="2" fill="#070807"/>
      <rect x="63" y="86" width="5" height="1" fill="#070807"/>
      <rect x="41" y="87" width="11" height="1" fill="#292b26"/>
      <rect x="52" y="87" width="11" height="1" fill="#070807"/>
      <rect x="33" y="87" width="8" height="1" fill="#070807"/>
      <rect x="51" y="88" width="12" height="1" fill="#070807"/>
      <rect x="40" y="88" width="11" height="1" fill="#292b26"/>
      <rect x="40" y="89" width="12" height="1" fill="#292b26"/>
      <rect x="33" y="88" width="7" height="2" fill="#070807"/>
      <rect x="52" y="89" width="11" height="1" fill="#070807"/>
      <rect x="40" y="90" width="16" height="2" fill="#070807"/>
    </g>
    <g class="trunk">
      <rect x="32" y="13" width="1" height="1" fill="#54321f"/>
      <rect x="21" y="27" width="1" height="8" fill="#54321f"/>
      <rect x="54" y="38" width="3" height="2" fill="#54321f"/>
      <rect x="45" y="38" width="4" height="2" fill="#54321f"/>
      <rect x="45" y="40" width="9" height="2" fill="#54321f"/>
      <rect x="36" y="40" width="4" height="2" fill="#54321f"/>
      <rect x="39" y="42" width="2" height="1" fill="#8e572d"/>
      <rect x="41" y="42" width="1" height="1" fill="#54321f"/>
      <rect x="33" y="40" width="1" height="3" fill="#54321f"/>
      <rect x="47" y="42" width="2" height="2" fill="#8e572d"/>
      <rect x="45" y="42" width="2" height="2" fill="#54321f"/>
      <rect x="49" y="42" width="5" height="2" fill="#54321f"/>
      <rect x="39" y="43" width="3" height="1" fill="#8e572d"/>
      <rect x="37" y="42" width="2" height="2" fill="#54321f"/>
      <rect x="39" y="44" width="1" height="2" fill="#54321f"/>
      <rect x="40" y="44" width="9" height="2" fill="#8e572d"/>
      <rect x="34" y="45" width="2" height="1" fill="#54321f"/>
      <rect x="39" y="46" width="2" height="1" fill="#54321f"/>
      <rect x="41" y="46" width="8" height="1" fill="#8e572d"/>
      <rect x="40" y="47" width="2" height="1" fill="#54321f"/>
      <rect x="41" y="48" width="1" height="1" fill="#54321f"/>
      <rect x="42" y="47" width="7" height="2" fill="#8e572d"/>
      <rect x="49" y="44" width="3" height="5" fill="#54321f"/>
      <rect x="51" y="49" width="3" height="1" fill="#54321f"/>
      <rect x="57" y="48" width="1" height="2" fill="#070807"/>
      <rect x="45" y="49" width="6" height="1" fill="#8e572d"/>
      <rect x="42" y="49" width="3" height="2" fill="#54321f"/>
      <rect x="45" y="50" width="7" height="1" fill="#8e572d"/>
      <rect x="42" y="51" width="2" height="1" fill="#54321f"/>
      <rect x="44" y="51" width="8" height="1" fill="#8e572d"/>
      <rect x="58" y="51" width="4" height="2" fill="#8e572d"/>
      <rect x="42" y="52" width="3" height="2" fill="#54321f"/>
      <rect x="58" y="53" width="2" height="1" fill="#8e572d"/>
      <rect x="36" y="53" width="1" height="1" fill="#54321f"/>
      <rect x="60" y="53" width="2" height="1" fill="#54321f"/>
      <rect x="45" y="52" width="7" height="2" fill="#8e572d"/>
      <rect x="44" y="54" width="5" height="1" fill="#8e572d"/>
      <rect x="43" y="54" width="1" height="1" fill="#54321f"/>
      <rect x="49" y="54" width="2" height="1" fill="#54321f"/>
      <rect x="38" y="54" width="5" height="1" fill="#8e572d"/>
      <rect x="51" y="54" width="1" height="1" fill="#8e572d"/>
      <rect x="52" y="50" width="2" height="5" fill="#54321f"/>
      <rect x="36" y="54" width="2" height="2" fill="#54321f"/>
      <rect x="38" y="55" width="11" height="1" fill="#8e572d"/>
      <rect x="55" y="54" width="5" height="2" fill="#54321f"/>
      <rect x="38" y="56" width="4" height="1" fill="#54321f"/>
      <rect x="39" y="57" width="3" height="1" fill="#54321f"/>
      <rect x="42" y="56" width="7" height="2" fill="#8e572d"/>
      <rect x="40" y="58" width="3" height="3" fill="#54321f"/>
      <rect x="43" y="58" width="6" height="3" fill="#8e572d"/>
      <rect x="42" y="61" width="7" height="1" fill="#8e572d"/>
      <rect x="40" y="61" width="2" height="1" fill="#54321f"/>
      <rect x="54" y="63" width="6" height="1" fill="#070807"/>
      <rect x="26" y="63" width="7" height="1" fill="#070807"/>
      <rect x="49" y="55" width="5" height="9" fill="#54321f"/>
      <rect x="36" y="63" width="4" height="1" fill="#070807"/>
      <rect x="68" y="63" width="1" height="1" fill="#54321f"/>
      <rect x="40" y="62" width="9" height="2" fill="#8e572d"/>
      <rect x="62" y="63" width="6" height="1" fill="#070807"/>
      <rect x="40" y="64" width="1" height="1" fill="#54321f"/>
      <rect x="55" y="64" width="1" height="1" fill="#54321f"/>
      <rect x="41" y="64" width="1" height="1" fill="#8e572d"/>
      <rect x="67" y="64" width="2" height="1" fill="#070807"/>
      <rect x="38" y="64" width="2" height="1" fill="#8e572d"/>
      <rect x="56" y="64" width="8" height="1" fill="#070807"/>
      <rect x="54" y="64" width="1" height="1" fill="#070807"/>
      <rect x="26" y="64" width="2" height="1" fill="#070807"/>
      <rect x="54" y="65" width="10" height="1" fill="#070807"/>
      <rect x="38" y="65" width="4" height="1" fill="#8e572d"/>
      <rect x="42" y="64" width="12" height="2" fill="#54321f"/>
      <rect x="31" y="64" width="6" height="2" fill="#070807"/>
      <rect x="21" y="65" width="7" height="1" fill="#070807"/>
      <rect x="37" y="64" width="1" height="2" fill="#54321f"/>
      <rect x="36" y="66" width="1" height="1" fill="#54321f"/>
      <rect x="38" y="66" width="11" height="1" fill="#54321f"/>
      <rect x="63" y="66" width="1" height="1" fill="#070807"/>
      <rect x="37" y="66" width="1" height="1" fill="#8e572d"/>
      <rect x="60" y="66" width="2" height="1" fill="#070807"/>
      <rect x="32" y="66" width="4" height="1" fill="#070807"/>
      <rect x="21" y="66" width="5" height="1" fill="#070807"/>
      <rect x="67" y="65" width="8" height="2" fill="#070807"/>
      <rect x="69" y="67" width="8" height="1" fill="#070807"/>
      <rect x="19" y="67" width="7" height="1" fill="#070807"/>
      <rect x="49" y="66" width="3" height="2" fill="#070807"/>
      <rect x="44" y="67" width="1" height="1" fill="#070807"/>
      <rect x="52" y="66" width="3" height="3" fill="#54321f"/>
      <rect x="45" y="67" width="4" height="2" fill="#54321f"/>
      <rect x="36" y="67" width="8" height="2" fill="#54321f"/>
    </g>
    <g class="leaves">
      <rect x="42" y="4" width="13" height="2" fill="#070807"/>
      <rect x="48" y="6" width="6" height="1" fill="#addb3f"/>
      <rect x="42" y="6" width="6" height="1" fill="#d9f46a"/>
      <rect x="54" y="6" width="3" height="2" fill="#070807"/>
      <rect x="39" y="6" width="3" height="2" fill="#070807"/>
      <rect x="49" y="7" width="5" height="2" fill="#addb3f"/>
      <rect x="42" y="7" width="7" height="2" fill="#d9f46a"/>
      <rect x="38" y="8" width="4" height="1" fill="#070807"/>
      <rect x="54" y="8" width="6" height="1" fill="#070807"/>
      <rect x="57" y="9" width="3" height="1" fill="#070807"/>
      <rect x="39" y="9" width="1" height="1" fill="#2f6731"/>
      <rect x="40" y="9" width="5" height="1" fill="#d9f46a"/>
      <rect x="36" y="9" width="3" height="1" fill="#070807"/>
      <rect x="45" y="9" width="12" height="1" fill="#addb3f"/>
      <rect x="38" y="10" width="7" height="1" fill="#d9f46a"/>
      <rect x="58" y="10" width="1" height="1" fill="#6ea63c"/>
      <rect x="45" y="10" width="13" height="1" fill="#addb3f"/>
      <rect x="57" y="11" width="2" height="1" fill="#6ea63c"/>
      <rect x="59" y="10" width="1" height="2" fill="#addb3f"/>
      <rect x="42" y="11" width="15" height="1" fill="#addb3f"/>
      <rect x="38" y="11" width="4" height="2" fill="#d9f46a"/>
      <rect x="36" y="10" width="2" height="3" fill="#070807"/>
      <rect x="60" y="10" width="2" height="4" fill="#070807"/>
      <rect x="40" y="13" width="2" height="1" fill="#d9f46a"/>
      <rect x="38" y="13" width="2" height="1" fill="#addb3f"/>
      <rect x="42" y="12" width="18" height="2" fill="#addb3f"/>
      <rect x="33" y="13" width="5" height="1" fill="#070807"/>
      <rect x="60" y="14" width="7" height="1" fill="#070807"/>
      <rect x="30" y="14" width="8" height="1" fill="#070807"/>
      <rect x="60" y="15" width="2" height="1" fill="#2f6731"/>
      <rect x="60" y="16" width="1" height="1" fill="#6ea63c"/>
      <rect x="38" y="14" width="22" height="3" fill="#addb3f"/>
      <rect x="61" y="16" width="1" height="1" fill="#2f6731"/>
      <rect x="62" y="15" width="5" height="2" fill="#070807"/>
      <rect x="30" y="15" width="3" height="3" fill="#070807"/>
      <rect x="67" y="17" width="3" height="2" fill="#070807"/>
      <rect x="38" y="17" width="16" height="2" fill="#addb3f"/>
      <rect x="65" y="17" width="2" height="2" fill="#addb3f"/>
      <rect x="28" y="18" width="5" height="1" fill="#070807"/>
      <rect x="33" y="15" width="5" height="4" fill="#d9f46a"/>
      <rect x="60" y="17" width="5" height="2" fill="#d9f46a"/>
      <rect x="54" y="17" width="6" height="2" fill="#6ea63c"/>
      <rect x="28" y="19" width="3" height="2" fill="#070807"/>
      <rect x="31" y="19" width="18" height="2" fill="#addb3f"/>
      <rect x="57" y="19" width="11" height="2" fill="#addb3f"/>
      <rect x="68" y="19" width="2" height="2" fill="#070807"/>
      <rect x="69" y="21" width="3" height="2" fill="#070807"/>
      <rect x="57" y="21" width="10" height="2" fill="#addb3f"/>
      <rect x="31" y="21" width="2" height="2" fill="#6ea63c"/>
      <rect x="67" y="21" width="2" height="2" fill="#6ea63c"/>
      <rect x="33" y="21" width="16" height="2" fill="#addb3f"/>
      <rect x="26" y="21" width="5" height="2" fill="#070807"/>
      <rect x="49" y="19" width="8" height="4" fill="#6ea63c"/>
      <rect x="36" y="23" width="9" height="3" fill="#addb3f"/>
      <rect x="26" y="23" width="5" height="3" fill="#d9f46a"/>
      <rect x="45" y="23" width="12" height="3" fill="#6ea63c"/>
      <rect x="31" y="23" width="2" height="3" fill="#addb3f"/>
      <rect x="33" y="23" width="3" height="3" fill="#6ea63c"/>
      <rect x="57" y="23" width="8" height="3" fill="#addb3f"/>
      <rect x="65" y="23" width="7" height="3" fill="#6ea63c"/>
      <rect x="24" y="23" width="2" height="4" fill="#070807"/>
      <rect x="22" y="27" width="4" height="1" fill="#070807"/>
      <rect x="38" y="26" width="4" height="2" fill="#addb3f"/>
      <rect x="26" y="26" width="7" height="2" fill="#addb3f"/>
      <rect x="33" y="26" width="5" height="2" fill="#6ea63c"/>
      <rect x="42" y="26" width="30" height="2" fill="#6ea63c"/>
      <rect x="24" y="28" width="9" height="2" fill="#addb3f"/>
      <rect x="33" y="28" width="39" height="2" fill="#6ea63c"/>
      <rect x="30" y="30" width="19" height="1" fill="#6ea63c"/>
      <rect x="24" y="30" width="6" height="1" fill="#addb3f"/>
      <rect x="55" y="30" width="14" height="2" fill="#6ea63c"/>
      <rect x="26" y="31" width="3" height="2" fill="#addb3f"/>
      <rect x="55" y="32" width="7" height="1" fill="#6ea63c"/>
      <rect x="69" y="30" width="3" height="3" fill="#2f6731"/>
      <rect x="63" y="32" width="6" height="1" fill="#6ea63c"/>
      <rect x="49" y="30" width="6" height="3" fill="#2f6731"/>
      <rect x="38" y="31" width="11" height="2" fill="#6ea63c"/>
      <rect x="29" y="31" width="7" height="2" fill="#6ea63c"/>
      <rect x="72" y="23" width="2" height="10" fill="#070807"/>
      <rect x="62" y="32" width="1" height="1" fill="#2f6731"/>
      <rect x="24" y="31" width="2" height="2" fill="#6ea63c"/>
      <rect x="36" y="31" width="2" height="2" fill="#2f6731"/>
      <rect x="40" y="33" width="9" height="1" fill="#6ea63c"/>
      <rect x="25" y="33" width="11" height="1" fill="#6ea63c"/>
      <rect x="24" y="33" width="1" height="1" fill="#2f6731"/>
      <rect x="40" y="34" width="5" height="1" fill="#6ea63c"/>
      <rect x="36" y="33" width="4" height="2" fill="#2f6731"/>
      <rect x="69" y="33" width="3" height="2" fill="#070807"/>
      <rect x="24" y="34" width="12" height="1" fill="#6ea63c"/>
      <rect x="55" y="33" width="5" height="2" fill="#6ea63c"/>
      <rect x="52" y="33" width="2" height="2" fill="#070807"/>
      <rect x="22" y="28" width="2" height="7" fill="#070807"/>
      <rect x="45" y="34" width="1" height="1" fill="#2f6731"/>
      <rect x="60" y="33" width="9" height="2" fill="#2f6731"/>
      <rect x="46" y="34" width="3" height="1" fill="#6ea63c"/>
      <rect x="54" y="33" width="1" height="2" fill="#2f6731"/>
      <rect x="49" y="33" width="3" height="2" fill="#2f6731"/>
      <rect x="26" y="35" width="5" height="1" fill="#6ea63c"/>
      <rect x="31" y="35" width="9" height="2" fill="#2f6731"/>
      <rect x="27" y="36" width="4" height="1" fill="#6ea63c"/>
      <rect x="26" y="36" width="1" height="1" fill="#2f6731"/>
      <rect x="63" y="35" width="7" height="2" fill="#070807"/>
      <rect x="40" y="35" width="20" height="2" fill="#070807"/>
      <rect x="60" y="35" width="3" height="2" fill="#2f6731"/>
      <rect x="24" y="35" width="2" height="2" fill="#070807"/>
      <rect x="24" y="37" width="46" height="1" fill="#070807"/>
      <rect x="26" y="38" width="19" height="2" fill="#070807"/>
      <rect x="49" y="38" width="5" height="2" fill="#070807"/>
      <rect x="57" y="38" width="7" height="2" fill="#070807"/>
      <rect x="34" y="40" width="2" height="2" fill="#070807"/>
      <rect x="40" y="40" width="5" height="2" fill="#070807"/>
      <rect x="64" y="40" width="8" height="2" fill="#070807"/>
      <rect x="54" y="40" width="6" height="2" fill="#070807"/>
      <rect x="34" y="42" width="3" height="1" fill="#070807"/>
      <rect x="72" y="42" width="3" height="2" fill="#070807"/>
      <rect x="36" y="43" width="1" height="1" fill="#070807"/>
      <rect x="62" y="42" width="2" height="2" fill="#070807"/>
      <rect x="54" y="42" width="3" height="2" fill="#070807"/>
      <rect x="42" y="42" width="3" height="2" fill="#070807"/>
      <rect x="24" y="42" width="8" height="2" fill="#070807"/>
      <rect x="60" y="44" width="4" height="1" fill="#070807"/>
      <rect x="72" y="44" width="5" height="1" fill="#070807"/>
      <rect x="67" y="42" width="5" height="3" fill="#addb3f"/>
      <rect x="64" y="42" width="3" height="3" fill="#d9f46a"/>
      <rect x="36" y="44" width="3" height="2" fill="#070807"/>
      <rect x="21" y="44" width="3" height="2" fill="#070807"/>
      <rect x="31" y="44" width="3" height="2" fill="#070807"/>
      <rect x="22" y="46" width="2" height="1" fill="#addb3f"/>
      <rect x="28" y="44" width="3" height="3" fill="#addb3f"/>
      <rect x="31" y="46" width="2" height="1" fill="#2f6731"/>
      <rect x="33" y="46" width="6" height="1" fill="#070807"/>
      <rect x="24" y="44" width="4" height="3" fill="#d9f46a"/>
      <rect x="72" y="45" width="2" height="2" fill="#6ea63c"/>
      <rect x="62" y="45" width="10" height="2" fill="#addb3f"/>
      <rect x="60" y="45" width="2" height="3" fill="#070807"/>
      <rect x="34" y="47" width="2" height="1" fill="#070807"/>
      <rect x="39" y="47" width="1" height="1" fill="#070807"/>
      <rect x="62" y="47" width="8" height="1" fill="#addb3f"/>
      <rect x="70" y="47" width="4" height="1" fill="#6ea63c"/>
      <rect x="39" y="48" width="2" height="1" fill="#070807"/>
      <rect x="31" y="47" width="2" height="2" fill="#6ea63c"/>
      <rect x="62" y="48" width="7" height="1" fill="#addb3f"/>
      <rect x="24" y="47" width="7" height="2" fill="#addb3f"/>
      <rect x="69" y="48" width="5" height="1" fill="#6ea63c"/>
      <rect x="33" y="47" width="1" height="2" fill="#2f6731"/>
      <rect x="22" y="47" width="2" height="2" fill="#d9f46a"/>
      <rect x="52" y="44" width="5" height="5" fill="#070807"/>
      <rect x="34" y="48" width="4" height="1" fill="#070807"/>
      <rect x="58" y="48" width="4" height="2" fill="#070807"/>
      <rect x="54" y="49" width="3" height="1" fill="#070807"/>
      <rect x="40" y="49" width="2" height="2" fill="#070807"/>
      <rect x="22" y="49" width="9" height="2" fill="#addb3f"/>
      <rect x="31" y="49" width="4" height="2" fill="#6ea63c"/>
      <rect x="54" y="50" width="8" height="1" fill="#070807"/>
      <rect x="74" y="45" width="3" height="6" fill="#070807"/>
      <rect x="35" y="49" width="3" height="2" fill="#070807"/>
      <rect x="62" y="49" width="10" height="2" fill="#6ea63c"/>
      <rect x="72" y="49" width="2" height="2" fill="#2f6731"/>
      <rect x="31" y="51" width="3" height="1" fill="#2f6731"/>
      <rect x="34" y="51" width="8" height="1" fill="#070807"/>
      <rect x="22" y="51" width="9" height="2" fill="#6ea63c"/>
      <rect x="33" y="52" width="9" height="1" fill="#070807"/>
      <rect x="24" y="53" width="7" height="1" fill="#6ea63c"/>
      <rect x="37" y="53" width="5" height="1" fill="#070807"/>
      <rect x="19" y="46" width="3" height="8" fill="#070807"/>
      <rect x="22" y="53" width="2" height="1" fill="#2f6731"/>
      <rect x="31" y="52" width="2" height="2" fill="#2f6731"/>
      <rect x="62" y="51" width="3" height="3" fill="#070807"/>
      <rect x="54" y="51" width="4" height="3" fill="#070807"/>
      <rect x="65" y="51" width="7" height="3" fill="#2f6731"/>
      <rect x="72" y="51" width="3" height="3" fill="#070807"/>
      <rect x="33" y="53" width="3" height="1" fill="#070807"/>
      <rect x="31" y="54" width="5" height="2" fill="#070807"/>
      <rect x="21" y="54" width="3" height="2" fill="#070807"/>
      <rect x="60" y="54" width="12" height="2" fill="#070807"/>
      <rect x="24" y="54" width="7" height="2" fill="#2f6731"/>
      <rect x="54" y="54" width="1" height="2" fill="#070807"/>
      <rect x="35" y="56" width="3" height="1" fill="#070807"/>
      <rect x="35" y="57" width="4" height="1" fill="#070807"/>
      <rect x="23" y="56" width="9" height="2" fill="#070807"/>
      <rect x="54" y="56" width="8" height="2" fill="#070807"/>
      <rect x="36" y="58" width="4" height="1" fill="#070807"/>
      <rect x="54" y="58" width="6" height="2" fill="#070807"/>
      <rect x="38" y="59" width="2" height="3" fill="#070807"/>
      <rect x="54" y="60" width="5" height="2" fill="#070807"/>
      <rect x="26" y="62" width="7" height="1" fill="#070807"/>
      <rect x="36" y="62" width="4" height="1" fill="#070807"/>
      <rect x="62" y="62" width="6" height="1" fill="#070807"/>
      <rect x="54" y="62" width="6" height="1" fill="#070807"/>
      <rect x="28" y="64" width="1" height="1" fill="#d9f46a"/>
      <rect x="29" y="64" width="2" height="1" fill="#addb3f"/>
      <rect x="64" y="64" width="3" height="2" fill="#addb3f"/>
      <rect x="62" y="66" width="1" height="1" fill="#2f6731"/>
      <rect x="64" y="66" width="1" height="1" fill="#addb3f"/>
      <rect x="26" y="66" width="2" height="1" fill="#2f6731"/>
      <rect x="28" y="65" width="3" height="2" fill="#addb3f"/>
      <rect x="65" y="66" width="2" height="1" fill="#6ea63c"/>
      <rect x="55" y="66" width="5" height="1" fill="#2f6731"/>
      <rect x="31" y="66" width="1" height="1" fill="#2f6731"/>
      <rect x="55" y="67" width="14" height="1" fill="#6ea63c"/>
      <rect x="28" y="67" width="1" height="1" fill="#addb3f"/>
      <rect x="27" y="67" width="1" height="1" fill="#6ea63c"/>
      <rect x="26" y="67" width="1" height="1" fill="#addb3f"/>
      <rect x="21" y="68" width="8" height="1" fill="#addb3f"/>
      <rect x="29" y="67" width="7" height="2" fill="#6ea63c"/>
      <rect x="55" y="68" width="20" height="1" fill="#6ea63c"/>
      <rect x="54" y="69" width="18" height="1" fill="#addb3f"/>
      <rect x="72" y="69" width="3" height="1" fill="#6ea63c"/>
      <rect x="23" y="69" width="17" height="1" fill="#addb3f"/>
      <rect x="21" y="69" width="2" height="1" fill="#d9f46a"/>
      <rect x="21" y="70" width="19" height="1" fill="#addb3f"/>
      <rect x="49" y="69" width="5" height="2" fill="#6ea63c"/>
      <rect x="44" y="69" width="5" height="2" fill="#addb3f"/>
      <rect x="40" y="69" width="4" height="2" fill="#6ea63c"/>
      <rect x="54" y="70" width="16" height="1" fill="#addb3f"/>
      <rect x="72" y="70" width="3" height="2" fill="#2f6731"/>
      <rect x="70" y="70" width="2" height="2" fill="#6ea63c"/>
      <rect x="21" y="71" width="49" height="1" fill="#addb3f"/>
      <rect x="21" y="72" width="1" height="1" fill="#addb3f"/>
      <rect x="22" y="72" width="4" height="1" fill="#6ea63c"/>
      <rect x="26" y="72" width="41" height="1" fill="#addb3f"/>
      <rect x="67" y="72" width="3" height="1" fill="#6ea63c"/>
      <rect x="70" y="72" width="5" height="1" fill="#2f6731"/>
      <rect x="26" y="73" width="3" height="1" fill="#2f6731"/>
      <rect x="63" y="73" width="7" height="1" fill="#2f6731"/>
      <rect x="63" y="74" width="4" height="2" fill="#2f6731"/>
      <rect x="29" y="73" width="34" height="3" fill="#6ea63c"/>
    </g>
  </g>
</svg>

