<svg xmlns="http://www.w3.org/2000/svg" viewBox="0 0 96 96" role="img" aria-label="vibe bonsai lush tree idle animation">
  <style>
    svg { overflow: visible; image-rendering: pixelated; shape-rendering: crispEdges; }
    .float { transform-origin: 48px 78px; animation: float-lush 2.40s steps(2, end) infinite; }
    .leaves { transform-origin: 48px 42px; }
    .trunk { transform-origin: 48px 69px; }
    .shadow { transform-origin: 48px 84px; animation: shadow-lush 2.40s steps(2, end) infinite; }
    @keyframes float-lush {
      0%, 100% { transform: translateY(0); }
      50% { transform: translateY(-1px); }
    }
    @keyframes leaves-lush {
      0%, 100% { transform: translateX(0); }
      50% { transform: translateX(1px); }
    }
    @keyframes trunk-lush {
      0%, 100% { transform: scaleY(1); }
      50% { transform: scaleY(0.992); }
    }
    @keyframes shadow-lush {
      0%, 100% { opacity: 0.18; transform: scaleX(1); }
      50% { opacity: 0.12; transform: scaleX(0.94); }
    }
  </style>
  <rect width="96" height="96" fill="none"/>
  <ellipse class="shadow" cx="48" cy="84" rx="22" ry="4" fill="#000000"/>
  <g class="float">
    <g class="island">
      <rect x="70" y="68" width="5" height="1" fill="#070807"/>
      <rect x="51" y="68" width="8" height="1" fill="#070807"/>
      <rect x="30" y="68" width="3" height="1" fill="#070807"/>
      <rect x="61" y="68" width="7" height="1" fill="#070807"/>
      <rect x="21" y="68" width="5" height="1" fill="#070807"/>
      <rect x="21" y="69" width="3" height="1" fill="#070807"/>
      <rect x="53" y="69" width="2" height="2" fill="#070807"/>
      <rect x="37" y="68" width="4" height="3" fill="#070807"/>
      <rect x="57" y="69" width="2" height="2" fill="#070807"/>
      <rect x="75" y="70" width="2" height="1" fill="#070807"/>
      <rect x="45" y="69" width="6" height="2" fill="#070807"/>
      <rect x="19" y="70" width="2" height="2" fill="#070807"/>
      <rect x="77" y="71" width="2" height="1" fill="#292b26"/>
      <rect x="18" y="72" width="1" height="5" fill="#070807"/>
      <rect x="77" y="72" width="2" height="5" fill="#070807"/>
      <rect x="70" y="75" width="5" height="2" fill="#070807"/>
      <rect x="22" y="75" width="2" height="2" fill="#070807"/>
      <rect x="17" y="72" width="1" height="5" fill="#55564e"/>
      <rect x="61" y="77" width="1" height="1" fill="#070807"/>
      <rect x="70" y="77" width="2" height="1" fill="#070807"/>
      <rect x="20" y="77" width="2" height="1" fill="#070807"/>
      <rect x="22" y="77" width="4" height="1" fill="#54321f"/>
      <rect x="31" y="77" width="2" height="2" fill="#070807"/>
      <rect x="70" y="78" width="1" height="1" fill="#54321f"/>
      <rect x="63" y="77" width="5" height="2" fill="#070807"/>
      <rect x="71" y="78" width="1" height="1" fill="#070807"/>
      <rect x="21" y="78" width="5" height="1" fill="#54321f"/>
      <rect x="72" y="77" width="3" height="2" fill="#54321f"/>
      <rect x="43" y="79" width="3" height="1" fill="#070807"/>
      <rect x="21" y="79" width="1" height="1" fill="#54321f"/>
      <rect x="46" y="79" width="3" height="1" fill="#54321f"/>
      <rect x="49" y="79" width="2" height="1" fill="#070807"/>
      <rect x="61" y="79" width="14" height="1" fill="#54321f"/>
      <rect x="24" y="79" width="11" height="1" fill="#54321f"/>
      <rect x="22" y="79" width="2" height="1" fill="#8e572d"/>
      <rect x="59" y="79" width="2" height="1" fill="#070807"/>
      <rect x="35" y="79" width="2" height="1" fill="#070807"/>
      <rect x="59" y="80" width="1" height="1" fill="#070807"/>
      <rect x="60" y="80" width="15" height="1" fill="#54321f"/>
      <rect x="21" y="80" width="16" height="1" fill="#54321f"/>
      <rect x="20" y="78" width="1" height="3" fill="#070807"/>
      <rect x="43" y="80" width="8" height="1" fill="#54321f"/>
      <rect x="35" y="81" width="4" height="1" fill="#54321f"/>
      <rect x="45" y="81" width="1" height="1" fill="#8e572d"/>
      <rect x="68" y="81" width="7" height="1" fill="#292b26"/>
      <rect x="58" y="81" width="5" height="1" fill="#54321f"/>
      <rect x="43" y="81" width="2" height="1" fill="#54321f"/>
      <rect x="19" y="77" width="1" height="5" fill="#292b26"/>
      <rect x="42" y="81" width="1" height="1" fill="#070807"/>
      <rect x="22" y="81" width="4" height="1" fill="#292b26"/>
      <rect x="29" y="81" width="6" height="1" fill="#8e572d"/>
      <rect x="20" y="81" width="2" height="1" fill="#070807"/>
      <rect x="63" y="81" width="5" height="1" fill="#8e572d"/>
      <rect x="57" y="81" width="1" height="1" fill="#070807"/>
      <rect x="26" y="81" width="3" height="1" fill="#54321f"/>
      <rect x="75" y="77" width="2" height="5" fill="#070807"/>
      <rect x="53" y="81" width="2" height="1" fill="#070807"/>
      <rect x="41" y="81" width="1" height="1" fill="#54321f"/>
      <rect x="46" y="81" width="7" height="1" fill="#54321f"/>
      <rect x="56" y="82" width="2" height="1" fill="#54321f"/>
      <rect x="75" y="82" width="2" height="1" fill="#55564e"/>
      <rect x="54" y="82" width="2" height="1" fill="#8e572d"/>
      <rect x="35" y="82" width="5" height="1" fill="#54321f"/>
      <rect x="31" y="82" width="2" height="1" fill="#54321f"/>
      <rect x="33" y="82" width="2" height="1" fill="#292b26"/>
      <rect x="40" y="82" width="13" height="1" fill="#8e572d"/>
      <rect x="58" y="82" width="1" height="1" fill="#8e572d"/>
      <rect x="20" y="82" width="1" height="1" fill="#55564e"/>
      <rect x="59" y="82" width="2" height="1" fill="#54321f"/>
      <rect x="53" y="82" width="1" height="1" fill="#54321f"/>
      <rect x="61" y="82" width="4" height="1" fill="#292b26"/>
      <rect x="66" y="82" width="7" height="1" fill="#292b26"/>
      <rect x="24" y="82" width="7" height="1" fill="#292b26"/>
      <rect x="65" y="82" width="1" height="1" fill="#54321f"/>
      <rect x="41" y="83" width="14" height="1" fill="#8e572d"/>
      <rect x="55" y="83" width="4" height="1" fill="#54321f"/>
      <rect x="21" y="82" width="1" height="2" fill="#292b26"/>
      <rect x="59" y="83" width="14" height="1" fill="#292b26"/>
      <rect x="22" y="82" width="2" height="2" fill="#070807"/>
      <rect x="37" y="83" width="4" height="1" fill="#54321f"/>
      <rect x="24" y="83" width="13" height="1" fill="#292b26"/>
      <rect x="73" y="82" width="2" height="2" fill="#070807"/>
      <rect x="24" y="84" width="5" height="1" fill="#070807"/>
      <rect x="29" y="84" width="39" height="1" fill="#292b26"/>
      <rect x="24" y="85" width="4" height="1" fill="#070807"/>
      <rect x="28" y="85" width="40" height="1" fill="#292b26"/>
      <rect x="68" y="84" width="5" height="2" fill="#070807"/>
      <rect x="39" y="86" width="24" height="1" fill="#292b26"/>
      <rect x="38" y="86" width="1" height="2" fill="#070807"/>
      <rect x="57" y="87" width="1" height="1" fill="#070807"/>
      <rect x="39" y="87" width="18" height="1" fill="#292b26"/>
      <rect x="28" y="86" width="5" height="2" fill="#070807"/>
      <rect x="63" y="86" width="5" height="2" fill="#070807"/>
      <rect x="58" y="87" width="5" height="1" fill="#292b26"/>
      <rect x="33" y="86" width="5" height="2" fill="#292b26"/>
      <rect x="40" y="88" width="17" height="1" fill="#292b26"/>
      <rect x="33" y="88" width="7" height="1" fill="#070807"/>
      <rect x="39" y="89" width="18" height="1" fill="#292b26"/>
      <rect x="63" y="88" width="1" height="2" fill="#55564e"/>
      <rect x="33" y="89" width="6" height="1" fill="#070807"/>
      <rect x="57" y="88" width="6" height="2" fill="#070807"/>
      <rect x="39" y="90" width="18" height="2" fill="#070807"/>
    </g>
    <g class="trunk">
      <rect x="33" y="11" width="1" height="1" fill="#070807"/>
      <rect x="32" y="11" width="1" height="1" fill="#54321f"/>
      <rect x="30" y="13" width="1" height="1" fill="#070807"/>
      <rect x="70" y="16" width="1" height="2" fill="#54321f"/>
      <rect x="72" y="18" width="1" height="1" fill="#54321f"/>
      <rect x="47" y="33" width="2" height="1" fill="#54321f"/>
      <rect x="48" y="34" width="1" height="1" fill="#54321f"/>
      <rect x="47" y="35" width="6" height="2" fill="#54321f"/>
      <rect x="41" y="37" width="2" height="1" fill="#54321f"/>
      <rect x="47" y="37" width="4" height="1" fill="#54321f"/>
      <rect x="58" y="38" width="2" height="1" fill="#54321f"/>
      <rect x="40" y="38" width="11" height="1" fill="#54321f"/>
      <rect x="47" y="39" width="2" height="1" fill="#8e572d"/>
      <rect x="70" y="39" width="1" height="1" fill="#54321f"/>
      <rect x="57" y="39" width="4" height="1" fill="#54321f"/>
      <rect x="41" y="39" width="6" height="1" fill="#54321f"/>
      <rect x="55" y="40" width="4" height="2" fill="#54321f"/>
      <rect x="45" y="40" width="4" height="2" fill="#8e572d"/>
      <rect x="49" y="39" width="2" height="3" fill="#54321f"/>
      <rect x="43" y="40" width="2" height="2" fill="#54321f"/>
      <rect x="45" y="42" width="5" height="1" fill="#8e572d"/>
      <rect x="50" y="42" width="7" height="1" fill="#54321f"/>
      <rect x="55" y="43" width="2" height="1" fill="#54321f"/>
      <rect x="50" y="43" width="1" height="1" fill="#8e572d"/>
      <rect x="49" y="43" width="1" height="1" fill="#54321f"/>
      <rect x="45" y="43" width="4" height="1" fill="#8e572d"/>
      <rect x="54" y="43" width="1" height="1" fill="#8e572d"/>
      <rect x="51" y="43" width="3" height="1" fill="#54321f"/>
      <rect x="35" y="45" width="1" height="1" fill="#070807"/>
      <rect x="45" y="44" width="8" height="2" fill="#8e572d"/>
      <rect x="53" y="44" width="2" height="2" fill="#54321f"/>
      <rect x="62" y="46" width="2" height="1" fill="#070807"/>
      <rect x="61" y="46" width="1" height="1" fill="#54321f"/>
      <rect x="57" y="48" width="1" height="1" fill="#54321f"/>
      <rect x="56" y="49" width="1" height="1" fill="#54321f"/>
      <rect x="45" y="46" width="6" height="6" fill="#8e572d"/>
      <rect x="43" y="50" width="2" height="2" fill="#54321f"/>
      <rect x="51" y="46" width="3" height="7" fill="#54321f"/>
      <rect x="37" y="52" width="1" height="2" fill="#54321f"/>
      <rect x="30" y="52" width="3" height="2" fill="#54321f"/>
      <rect x="52" y="53" width="1" height="2" fill="#8e572d"/>
      <rect x="57" y="54" width="6" height="1" fill="#54321f"/>
      <rect x="51" y="53" width="1" height="2" fill="#54321f"/>
      <rect x="53" y="53" width="1" height="2" fill="#54321f"/>
      <rect x="51" y="55" width="4" height="1" fill="#54321f"/>
      <rect x="33" y="54" width="4" height="2" fill="#54321f"/>
      <rect x="57" y="55" width="7" height="1" fill="#54321f"/>
      <rect x="68" y="56" width="1" height="1" fill="#070807"/>
      <rect x="33" y="56" width="10" height="2" fill="#54321f"/>
      <rect x="51" y="56" width="10" height="2" fill="#54321f"/>
      <rect x="43" y="52" width="8" height="6" fill="#8e572d"/>
      <rect x="75" y="57" width="1" height="1" fill="#070807"/>
      <rect x="32" y="58" width="1" height="2" fill="#54321f"/>
      <rect x="37" y="58" width="4" height="2" fill="#54321f"/>
      <rect x="51" y="58" width="6" height="2" fill="#54321f"/>
      <rect x="41" y="58" width="10" height="2" fill="#8e572d"/>
      <rect x="41" y="60" width="9" height="1" fill="#8e572d"/>
      <rect x="39" y="60" width="2" height="1" fill="#54321f"/>
      <rect x="50" y="60" width="5" height="1" fill="#54321f"/>
      <rect x="41" y="61" width="8" height="1" fill="#8e572d"/>
      <rect x="40" y="61" width="1" height="1" fill="#54321f"/>
      <rect x="49" y="61" width="6" height="2" fill="#54321f"/>
      <rect x="45" y="62" width="4" height="1" fill="#8e572d"/>
      <rect x="43" y="62" width="2" height="1" fill="#54321f"/>
      <rect x="41" y="62" width="2" height="2" fill="#8e572d"/>
      <rect x="43" y="63" width="1" height="1" fill="#54321f"/>
      <rect x="37" y="63" width="2" height="1" fill="#070807"/>
      <rect x="49" y="63" width="7" height="1" fill="#54321f"/>
      <rect x="44" y="63" width="5" height="1" fill="#8e572d"/>
      <rect x="39" y="62" width="2" height="2" fill="#54321f"/>
      <rect x="56" y="63" width="4" height="1" fill="#070807"/>
      <rect x="41" y="64" width="4" height="2" fill="#54321f"/>
      <rect x="59" y="64" width="4" height="2" fill="#070807"/>
      <rect x="49" y="64" width="10" height="2" fill="#54321f"/>
      <rect x="37" y="64" width="4" height="2" fill="#8e572d"/>
      <rect x="45" y="64" width="4" height="2" fill="#8e572d"/>
      <rect x="35" y="64" width="2" height="2" fill="#070807"/>
      <rect x="35" y="66" width="8" height="1" fill="#54321f"/>
      <rect x="45" y="66" width="8" height="1" fill="#54321f"/>
      <rect x="43" y="66" width="2" height="1" fill="#8e572d"/>
      <rect x="70" y="66" width="1" height="1" fill="#54321f"/>
      <rect x="70" y="67" width="5" height="1" fill="#54321f"/>
      <rect x="30" y="67" width="2" height="1" fill="#54321f"/>
      <rect x="35" y="67" width="7" height="1" fill="#54321f"/>
      <rect x="65" y="67" width="3" height="1" fill="#54321f"/>
      <rect x="26" y="66" width="4" height="2" fill="#070807"/>
      <rect x="42" y="67" width="1" height="1" fill="#070807"/>
      <rect x="55" y="66" width="4" height="2" fill="#54321f"/>
      <rect x="43" y="67" width="3" height="1" fill="#8e572d"/>
      <rect x="68" y="66" width="2" height="2" fill="#070807"/>
      <rect x="24" y="67" width="2" height="1" fill="#54321f"/>
      <rect x="32" y="66" width="3" height="2" fill="#070807"/>
      <rect x="53" y="66" width="2" height="2" fill="#070807"/>
      <rect x="59" y="66" width="6" height="2" fill="#070807"/>
      <rect x="46" y="67" width="7" height="1" fill="#54321f"/>
      <rect x="59" y="68" width="2" height="1" fill="#54321f"/>
      <rect x="33" y="68" width="4" height="1" fill="#54321f"/>
      <rect x="41" y="68" width="10" height="1" fill="#54321f"/>
      <rect x="75" y="69" width="2" height="1" fill="#070807"/>
    </g>
    <g class="leaves">
      <rect x="43" y="4" width="13" height="2" fill="#070807"/>
      <rect x="43" y="6" width="1" height="2" fill="#addb3f"/>
      <rect x="55" y="6" width="3" height="2" fill="#070807"/>
      <rect x="44" y="6" width="11" height="2" fill="#d9f46a"/>
      <rect x="41" y="6" width="2" height="2" fill="#070807"/>
      <rect x="41" y="8" width="1" height="1" fill="#addb3f"/>
      <rect x="42" y="8" width="13" height="1" fill="#d9f46a"/>
      <rect x="55" y="8" width="2" height="2" fill="#addb3f"/>
      <rect x="39" y="8" width="2" height="2" fill="#070807"/>
      <rect x="43" y="9" width="12" height="1" fill="#d9f46a"/>
      <rect x="57" y="8" width="6" height="2" fill="#070807"/>
      <rect x="43" y="10" width="1" height="1" fill="#d9f46a"/>
      <rect x="62" y="10" width="2" height="1" fill="#070807"/>
      <rect x="57" y="10" width="5" height="1" fill="#d9f46a"/>
      <rect x="41" y="9" width="2" height="2" fill="#addb3f"/>
      <rect x="44" y="10" width="13" height="1" fill="#addb3f"/>
      <rect x="41" y="11" width="1" height="1" fill="#addb3f"/>
      <rect x="56" y="11" width="7" height="1" fill="#d9f46a"/>
      <rect x="34" y="10" width="7" height="2" fill="#070807"/>
      <rect x="42" y="11" width="1" height="1" fill="#6ea63c"/>
      <rect x="43" y="11" width="13" height="1" fill="#addb3f"/>
      <rect x="57" y="12" width="2" height="1" fill="#d9f46a"/>
      <rect x="32" y="12" width="3" height="1" fill="#070807"/>
      <rect x="60" y="12" width="3" height="1" fill="#d9f46a"/>
      <rect x="35" y="12" width="6" height="1" fill="#d9f46a"/>
      <rect x="59" y="12" width="1" height="1" fill="#addb3f"/>
      <rect x="41" y="12" width="16" height="1" fill="#addb3f"/>
      <rect x="43" y="13" width="14" height="1" fill="#addb3f"/>
      <rect x="31" y="13" width="2" height="1" fill="#070807"/>
      <rect x="61" y="13" width="2" height="1" fill="#d9f46a"/>
      <rect x="33" y="13" width="2" height="1" fill="#2f6731"/>
      <rect x="57" y="13" width="3" height="1" fill="#d9f46a"/>
      <rect x="35" y="13" width="8" height="1" fill="#d9f46a"/>
      <rect x="60" y="13" width="1" height="1" fill="#addb3f"/>
      <rect x="58" y="14" width="1" height="1" fill="#d9f46a"/>
      <rect x="30" y="14" width="2" height="1" fill="#070807"/>
      <rect x="33" y="14" width="11" height="1" fill="#d9f46a"/>
      <rect x="44" y="14" width="14" height="1" fill="#addb3f"/>
      <rect x="57" y="15" width="2" height="1" fill="#d9f46a"/>
      <rect x="51" y="15" width="6" height="1" fill="#addb3f"/>
      <rect x="50" y="15" width="1" height="1" fill="#d9f46a"/>
      <rect x="37" y="15" width="4" height="1" fill="#addb3f"/>
      <rect x="32" y="14" width="1" height="2" fill="#2f6731"/>
      <rect x="28" y="15" width="4" height="1" fill="#070807"/>
      <rect x="33" y="15" width="4" height="1" fill="#d9f46a"/>
      <rect x="45" y="15" width="5" height="1" fill="#addb3f"/>
      <rect x="63" y="11" width="3" height="5" fill="#070807"/>
      <rect x="59" y="14" width="4" height="2" fill="#addb3f"/>
      <rect x="41" y="15" width="4" height="1" fill="#d9f46a"/>
      <rect x="31" y="16" width="30" height="1" fill="#addb3f"/>
      <rect x="61" y="16" width="2" height="1" fill="#6ea63c"/>
      <rect x="63" y="16" width="7" height="2" fill="#070807"/>
      <rect x="59" y="17" width="4" height="1" fill="#6ea63c"/>
      <rect x="31" y="17" width="28" height="1" fill="#addb3f"/>
      <rect x="30" y="16" width="1" height="2" fill="#d9f46a"/>
      <rect x="30" y="18" width="27" height="1" fill="#addb3f"/>
      <rect x="61" y="18" width="2" height="2" fill="#addb3f"/>
      <rect x="31" y="19" width="26" height="1" fill="#addb3f"/>
      <rect x="57" y="18" width="4" height="2" fill="#6ea63c"/>
      <rect x="70" y="18" width="2" height="2" fill="#070807"/>
      <rect x="63" y="18" width="7" height="2" fill="#d9f46a"/>
      <rect x="30" y="19" width="1" height="1" fill="#d9f46a"/>
      <rect x="59" y="20" width="7" height="1" fill="#d9f46a"/>
      <rect x="55" y="20" width="4" height="1" fill="#6ea63c"/>
      <rect x="33" y="20" width="22" height="2" fill="#addb3f"/>
      <rect x="66" y="20" width="4" height="2" fill="#addb3f"/>
      <rect x="70" y="20" width="2" height="2" fill="#d9f46a"/>
      <rect x="57" y="21" width="9" height="1" fill="#d9f46a"/>
      <rect x="30" y="20" width="3" height="2" fill="#6ea63c"/>
      <rect x="35" y="22" width="20" height="1" fill="#addb3f"/>
      <rect x="61" y="22" width="11" height="1" fill="#addb3f"/>
      <rect x="57" y="22" width="4" height="1" fill="#d9f46a"/>
      <rect x="55" y="21" width="2" height="2" fill="#6ea63c"/>
      <rect x="28" y="16" width="2" height="7" fill="#070807"/>
      <rect x="36" y="23" width="1" height="1" fill="#6ea63c"/>
      <rect x="37" y="23" width="14" height="1" fill="#addb3f"/>
      <rect x="33" y="22" width="2" height="2" fill="#6ea63c"/>
      <rect x="35" y="23" width="1" height="1" fill="#addb3f"/>
      <rect x="33" y="24" width="3" height="1" fill="#6ea63c"/>
      <rect x="55" y="23" width="17" height="2" fill="#addb3f"/>
      <rect x="36" y="24" width="15" height="1" fill="#addb3f"/>
      <rect x="24" y="23" width="6" height="2" fill="#070807"/>
      <rect x="30" y="22" width="3" height="3" fill="#2f6731"/>
      <rect x="51" y="23" width="4" height="2" fill="#6ea63c"/>
      <rect x="45" y="25" width="8" height="1" fill="#6ea63c"/>
      <rect x="53" y="25" width="2" height="1" fill="#2f6731"/>
      <rect x="31" y="25" width="1" height="1" fill="#6ea63c"/>
      <rect x="24" y="25" width="7" height="1" fill="#addb3f"/>
      <rect x="32" y="25" width="1" height="1" fill="#addb3f"/>
      <rect x="72" y="20" width="3" height="7" fill="#070807"/>
      <rect x="55" y="25" width="15" height="2" fill="#addb3f"/>
      <rect x="70" y="25" width="2" height="2" fill="#6ea63c"/>
      <rect x="39" y="25" width="6" height="2" fill="#addb3f"/>
      <rect x="45" y="26" width="6" height="1" fill="#6ea63c"/>
      <rect x="51" y="26" width="4" height="1" fill="#2f6731"/>
      <rect x="33" y="25" width="6" height="2" fill="#6ea63c"/>
      <rect x="36" y="27" width="9" height="1" fill="#6ea63c"/>
      <rect x="53" y="27" width="2" height="1" fill="#6ea63c"/>
      <rect x="34" y="27" width="2" height="1" fill="#addb3f"/>
      <rect x="72" y="27" width="3" height="1" fill="#6ea63c"/>
      <rect x="55" y="27" width="13" height="1" fill="#addb3f"/>
      <rect x="35" y="28" width="1" height="1" fill="#6ea63c"/>
      <rect x="45" y="27" width="8" height="2" fill="#2f6731"/>
      <rect x="24" y="26" width="9" height="3" fill="#addb3f"/>
      <rect x="33" y="27" width="1" height="2" fill="#6ea63c"/>
      <rect x="53" y="28" width="3" height="1" fill="#6ea63c"/>
      <rect x="37" y="28" width="8" height="1" fill="#6ea63c"/>
      <rect x="68" y="27" width="2" height="2" fill="#6ea63c"/>
      <rect x="75" y="27" width="3" height="2" fill="#070807"/>
      <rect x="34" y="28" width="1" height="1" fill="#addb3f"/>
      <rect x="72" y="28" width="3" height="1" fill="#addb3f"/>
      <rect x="70" y="27" width="2" height="2" fill="#2f6731"/>
      <rect x="36" y="28" width="1" height="1" fill="#addb3f"/>
      <rect x="56" y="28" width="12" height="1" fill="#addb3f"/>
      <rect x="63" y="29" width="5" height="1" fill="#6ea63c"/>
      <rect x="53" y="29" width="4" height="1" fill="#6ea63c"/>
      <rect x="57" y="29" width="4" height="1" fill="#addb3f"/>
      <rect x="61" y="29" width="1" height="1" fill="#6ea63c"/>
      <rect x="62" y="29" width="1" height="1" fill="#addb3f"/>
      <rect x="68" y="29" width="2" height="2" fill="#2f6731"/>
      <rect x="70" y="29" width="7" height="2" fill="#addb3f"/>
      <rect x="24" y="29" width="15" height="2" fill="#6ea63c"/>
      <rect x="57" y="30" width="2" height="1" fill="#6ea63c"/>
      <rect x="56" y="30" width="1" height="1" fill="#addb3f"/>
      <rect x="59" y="30" width="1" height="1" fill="#addb3f"/>
      <rect x="39" y="29" width="14" height="2" fill="#2f6731"/>
      <rect x="53" y="30" width="3" height="1" fill="#6ea63c"/>
      <rect x="60" y="30" width="8" height="1" fill="#6ea63c"/>
      <rect x="66" y="31" width="2" height="2" fill="#2f6731"/>
      <rect x="51" y="31" width="6" height="2" fill="#2f6731"/>
      <rect x="37" y="31" width="8" height="2" fill="#2f6731"/>
      <rect x="57" y="31" width="9" height="2" fill="#6ea63c"/>
      <rect x="22" y="25" width="2" height="8" fill="#070807"/>
      <rect x="28" y="31" width="9" height="2" fill="#6ea63c"/>
      <rect x="68" y="31" width="9" height="2" fill="#6ea63c"/>
      <rect x="24" y="31" width="4" height="2" fill="#2f6731"/>
      <rect x="45" y="31" width="6" height="2" fill="#070807"/>
      <rect x="53" y="33" width="1" height="1" fill="#2f6731"/>
      <rect x="49" y="33" width="4" height="1" fill="#070807"/>
      <rect x="54" y="33" width="1" height="1" fill="#070807"/>
      <rect x="41" y="33" width="6" height="1" fill="#070807"/>
      <rect x="49" y="34" width="6" height="1" fill="#070807"/>
      <rect x="24" y="33" width="4" height="2" fill="#070807"/>
      <rect x="77" y="29" width="2" height="6" fill="#070807"/>
      <rect x="28" y="33" width="13" height="2" fill="#2f6731"/>
      <rect x="55" y="33" width="22" height="2" fill="#2f6731"/>
      <rect x="41" y="34" width="7" height="1" fill="#070807"/>
      <rect x="26" y="35" width="4" height="1" fill="#070807"/>
      <rect x="61" y="35" width="9" height="1" fill="#2f6731"/>
      <rect x="53" y="35" width="8" height="1" fill="#070807"/>
      <rect x="70" y="35" width="7" height="2" fill="#070807"/>
      <rect x="21" y="36" width="9" height="1" fill="#070807"/>
      <rect x="30" y="35" width="7" height="2" fill="#2f6731"/>
      <rect x="53" y="36" width="7" height="1" fill="#070807"/>
      <rect x="60" y="36" width="10" height="1" fill="#2f6731"/>
      <rect x="37" y="35" width="10" height="2" fill="#070807"/>
      <rect x="21" y="37" width="20" height="1" fill="#070807"/>
      <rect x="43" y="37" width="4" height="1" fill="#070807"/>
      <rect x="51" y="37" width="21" height="1" fill="#070807"/>
      <rect x="60" y="38" width="12" height="1" fill="#070807"/>
      <rect x="51" y="38" width="7" height="1" fill="#070807"/>
      <rect x="29" y="38" width="11" height="1" fill="#070807"/>
      <rect x="19" y="38" width="2" height="2" fill="#070807"/>
      <rect x="61" y="39" width="9" height="1" fill="#070807"/>
      <rect x="51" y="39" width="6" height="1" fill="#070807"/>
      <rect x="29" y="39" width="12" height="1" fill="#070807"/>
      <rect x="28" y="38" width="1" height="2" fill="#6ea63c"/>
      <rect x="21" y="38" width="1" height="2" fill="#6ea63c"/>
      <rect x="22" y="38" width="6" height="2" fill="#d9f46a"/>
      <rect x="59" y="40" width="16" height="1" fill="#070807"/>
      <rect x="26" y="40" width="2" height="1" fill="#addb3f"/>
      <rect x="24" y="40" width="1" height="1" fill="#addb3f"/>
      <rect x="22" y="40" width="1" height="1" fill="#addb3f"/>
      <rect x="19" y="40" width="3" height="1" fill="#d9f46a"/>
      <rect x="28" y="40" width="3" height="1" fill="#d9f46a"/>
      <rect x="25" y="40" width="1" height="1" fill="#d9f46a"/>
      <rect x="23" y="40" width="1" height="1" fill="#d9f46a"/>
      <rect x="31" y="40" width="2" height="2" fill="#070807"/>
      <rect x="59" y="41" width="6" height="1" fill="#070807"/>
      <rect x="17" y="40" width="2" height="2" fill="#070807"/>
      <rect x="35" y="40" width="8" height="2" fill="#070807"/>
      <rect x="24" y="41" width="6" height="1" fill="#addb3f"/>
      <rect x="30" y="41" width="1" height="1" fill="#d9f46a"/>
      <rect x="68" y="41" width="7" height="1" fill="#070807"/>
      <rect x="19" y="41" width="5" height="1" fill="#d9f46a"/>
      <rect x="51" y="40" width="4" height="2" fill="#070807"/>
      <rect x="37" y="42" width="8" height="2" fill="#070807"/>
      <rect x="75" y="42" width="4" height="2" fill="#070807"/>
      <rect x="66" y="42" width="2" height="2" fill="#070807"/>
      <rect x="31" y="42" width="2" height="2" fill="#2f6731"/>
      <rect x="14" y="42" width="3" height="2" fill="#070807"/>
      <rect x="57" y="42" width="6" height="2" fill="#070807"/>
      <rect x="33" y="42" width="2" height="2" fill="#070807"/>
      <rect x="17" y="42" width="14" height="2" fill="#addb3f"/>
      <rect x="68" y="42" width="7" height="2" fill="#d9f46a"/>
      <rect x="19" y="44" width="11" height="1" fill="#addb3f"/>
      <rect x="17" y="44" width="2" height="1" fill="#d9f46a"/>
      <rect x="41" y="44" width="4" height="1" fill="#070807"/>
      <rect x="33" y="44" width="3" height="1" fill="#070807"/>
      <rect x="15" y="44" width="2" height="1" fill="#addb3f"/>
      <rect x="30" y="44" width="3" height="1" fill="#6ea63c"/>
      <rect x="15" y="45" width="4" height="1" fill="#d9f46a"/>
      <rect x="29" y="45" width="4" height="1" fill="#6ea63c"/>
      <rect x="77" y="44" width="4" height="2" fill="#070807"/>
      <rect x="66" y="44" width="11" height="2" fill="#addb3f"/>
      <rect x="55" y="44" width="6" height="2" fill="#070807"/>
      <rect x="33" y="45" width="2" height="1" fill="#070807"/>
      <rect x="19" y="45" width="10" height="1" fill="#addb3f"/>
      <rect x="64" y="44" width="2" height="3" fill="#070807"/>
      <rect x="54" y="46" width="6" height="2" fill="#070807"/>
      <rect x="15" y="46" width="13" height="2" fill="#addb3f"/>
      <rect x="43" y="45" width="2" height="3" fill="#070807"/>
      <rect x="61" y="47" width="5" height="1" fill="#070807"/>
      <rect x="28" y="46" width="7" height="2" fill="#6ea63c"/>
      <rect x="35" y="46" width="4" height="2" fill="#070807"/>
      <rect x="66" y="46" width="15" height="2" fill="#addb3f"/>
      <rect x="54" y="48" width="3" height="1" fill="#070807"/>
      <rect x="35" y="48" width="2" height="2" fill="#6ea63c"/>
      <rect x="31" y="48" width="2" height="2" fill="#070807"/>
      <rect x="37" y="48" width="8" height="2" fill="#070807"/>
      <rect x="33" y="48" width="2" height="2" fill="#2f6731"/>
      <rect x="61" y="48" width="9" height="2" fill="#6ea63c"/>
      <rect x="28" y="48" width="3" height="2" fill="#2f6731"/>
      <rect x="70" y="48" width="11" height="2" fill="#addb3f"/>
      <rect x="15" y="48" width="13" height="2" fill="#6ea63c"/>
      <rect x="72" y="50" width="3" height="1" fill="#addb3f"/>
      <rect x="75" y="50" width="6" height="1" fill="#6ea63c"/>
      <rect x="69" y="50" width="3" height="1" fill="#6ea63c"/>
      <rect x="61" y="50" width="8" height="1" fill="#2f6731"/>
      <rect x="70" y="51" width="3" height="1" fill="#6ea63c"/>
      <rect x="74" y="51" width="7" height="1" fill="#6ea63c"/>
      <rect x="61" y="51" width="7" height="1" fill="#2f6731"/>
      <rect x="69" y="51" width="1" height="1" fill="#2f6731"/>
      <rect x="73" y="51" width="1" height="1" fill="#addb3f"/>
      <rect x="68" y="51" width="1" height="1" fill="#6ea63c"/>
      <rect x="35" y="50" width="2" height="2" fill="#2f6731"/>
      <rect x="24" y="50" width="6" height="2" fill="#2f6731"/>
      <rect x="19" y="50" width="5" height="2" fill="#6ea63c"/>
      <rect x="15" y="50" width="4" height="2" fill="#2f6731"/>
      <rect x="59" y="48" width="2" height="4" fill="#070807"/>
      <rect x="37" y="50" width="6" height="2" fill="#070807"/>
      <rect x="13" y="44" width="2" height="8" fill="#070807"/>
      <rect x="30" y="50" width="5" height="2" fill="#070807"/>
      <rect x="54" y="49" width="2" height="3" fill="#070807"/>
      <rect x="26" y="52" width="4" height="2" fill="#070807"/>
      <rect x="81" y="46" width="2" height="8" fill="#070807"/>
      <rect x="75" y="52" width="6" height="2" fill="#2f6731"/>
      <rect x="19" y="52" width="7" height="2" fill="#2f6731"/>
      <rect x="54" y="52" width="14" height="2" fill="#070807"/>
      <rect x="33" y="52" width="4" height="2" fill="#070807"/>
      <rect x="72" y="52" width="3" height="2" fill="#6ea63c"/>
      <rect x="15" y="52" width="4" height="2" fill="#070807"/>
      <rect x="68" y="52" width="4" height="2" fill="#2f6731"/>
      <rect x="41" y="52" width="2" height="2" fill="#070807"/>
      <rect x="54" y="54" width="3" height="1" fill="#070807"/>
      <rect x="63" y="54" width="7" height="1" fill="#070807"/>
      <rect x="55" y="55" width="2" height="1" fill="#070807"/>
      <rect x="64" y="55" width="6" height="1" fill="#070807"/>
      <rect x="18" y="54" width="15" height="2" fill="#070807"/>
      <rect x="37" y="54" width="6" height="2" fill="#070807"/>
      <rect x="75" y="54" width="6" height="2" fill="#070807"/>
      <rect x="70" y="54" width="5" height="2" fill="#2f6731"/>
      <rect x="61" y="56" width="7" height="1" fill="#070807"/>
      <rect x="69" y="56" width="7" height="1" fill="#070807"/>
      <rect x="69" y="57" width="6" height="1" fill="#070807"/>
      <rect x="28" y="56" width="5" height="2" fill="#070807"/>
      <rect x="61" y="57" width="5" height="1" fill="#070807"/>
      <rect x="57" y="58" width="7" height="2" fill="#070807"/>
      <rect x="33" y="58" width="4" height="2" fill="#070807"/>
      <rect x="55" y="60" width="6" height="1" fill="#070807"/>
      <rect x="35" y="60" width="4" height="1" fill="#070807"/>
      <rect x="37" y="61" width="3" height="1" fill="#070807"/>
      <rect x="37" y="62" width="2" height="1" fill="#070807"/>
      <rect x="55" y="61" width="5" height="2" fill="#070807"/>
      <rect x="68" y="68" width="2" height="1" fill="#6ea63c"/>
      <rect x="28" y="68" width="2" height="1" fill="#2f6731"/>
      <rect x="26" y="68" width="2" height="1" fill="#6ea63c"/>
      <rect x="27" y="69" width="4" height="1" fill="#6ea63c"/>
      <rect x="71" y="69" width="3" height="1" fill="#addb3f"/>
      <rect x="74" y="69" width="1" height="1" fill="#6ea63c"/>
      <rect x="24" y="69" width="3" height="1" fill="#addb3f"/>
      <rect x="66" y="69" width="5" height="1" fill="#6ea63c"/>
      <rect x="61" y="69" width="2" height="2" fill="#6ea63c"/>
      <rect x="51" y="69" width="2" height="2" fill="#2f6731"/>
      <rect x="55" y="69" width="2" height="2" fill="#6ea63c"/>
      <rect x="31" y="69" width="2" height="2" fill="#2f6731"/>
      <rect x="33" y="69" width="2" height="2" fill="#6ea63c"/>
      <rect x="63" y="69" width="3" height="2" fill="#2f6731"/>
      <rect x="66" y="70" width="9" height="1" fill="#6ea63c"/>
      <rect x="41" y="69" width="2" height="2" fill="#addb3f"/>
      <rect x="35" y="69" width="2" height="2" fill="#2f6731"/>
      <rect x="59" y="69" width="2" height="2" fill="#2f6731"/>
      <rect x="22" y="70" width="6" height="1" fill="#addb3f"/>
      <rect x="28" y="70" width="3" height="1" fill="#6ea63c"/>
      <rect x="43" y="69" width="2" height="2" fill="#2f6731"/>
      <rect x="43" y="71" width="10" height="1" fill="#6ea63c"/>
      <rect x="21" y="70" width="1" height="2" fill="#6ea63c"/>
      <rect x="53" y="71" width="24" height="1" fill="#addb3f"/>
      <rect x="22" y="71" width="21" height="1" fill="#addb3f"/>
      <rect x="45" y="72" width="8" height="1" fill="#6ea63c"/>
      <rect x="53" y="72" width="22" height="1" fill="#addb3f"/>
      <rect x="19" y="72" width="1" height="1" fill="#6ea63c"/>
      <rect x="76" y="72" width="1" height="1" fill="#addb3f"/>
      <rect x="75" y="72" width="1" height="1" fill="#6ea63c"/>
      <rect x="37" y="72" width="4" height="1" fill="#6ea63c"/>
      <rect x="20" y="72" width="17" height="1" fill="#addb3f"/>
      <rect x="44" y="72" width="1" height="1" fill="#addb3f"/>
      <rect x="41" y="72" width="2" height="1" fill="#addb3f"/>
      <rect x="43" y="72" width="1" height="1" fill="#6ea63c"/>
      <rect x="20" y="73" width="6" height="2" fill="#6ea63c"/>
      <rect x="70" y="73" width="2" height="2" fill="#6ea63c"/>
      <rect x="26" y="73" width="44" height="2" fill="#addb3f"/>
      <rect x="72" y="73" width="5" height="2" fill="#2f6731"/>
      <rect x="19" y="73" width="1" height="2" fill="#2f6731"/>
      <rect x="31" y="75" width="30" height="1" fill="#addb3f"/>
      <rect x="33" y="76" width="28" height="1" fill="#addb3f"/>
      <rect x="75" y="75" width="2" height="2" fill="#2f6731"/>
      <rect x="32" y="76" width="1" height="1" fill="#6ea63c"/>
      <rect x="61" y="75" width="9" height="2" fill="#6ea63c"/>
      <rect x="31" y="76" width="1" height="1" fill="#addb3f"/>
      <rect x="26" y="75" width="5" height="2" fill="#6ea63c"/>
      <rect x="24" y="75" width="2" height="2" fill="#2f6731"/>
      <rect x="19" y="75" width="3" height="2" fill="#2f6731"/>
      <rect x="62" y="77" width="1" height="1" fill="#2f6731"/>
      <rect x="39" y="77" width="4" height="1" fill="#addb3f"/>
      <rect x="26" y="77" width="5" height="1" fill="#2f6731"/>
      <rect x="37" y="77" width="2" height="1" fill="#6ea63c"/>
      <rect x="43" y="77" width="2" height="1" fill="#6ea63c"/>
      <rect x="30" y="78" width="1" height="1" fill="#2f6731"/>
      <rect x="68" y="77" width="2" height="2" fill="#2f6731"/>
      <rect x="42" y="78" width="3" height="1" fill="#6ea63c"/>
      <rect x="61" y="78" width="2" height="1" fill="#2f6731"/>
      <rect x="37" y="78" width="1" height="1" fill="#addb3f"/>
      <rect x="29" y="78" width="1" height="1" fill="#6ea63c"/>
      <rect x="45" y="77" width="6" height="2" fill="#2f6731"/>
      <rect x="38" y="78" width="1" height="1" fill="#6ea63c"/>
      <rect x="39" y="78" width="3" height="1" fill="#addb3f"/>
      <rect x="26" y="78" width="3" height="1" fill="#2f6731"/>
      <rect x="51" y="77" width="10" height="2" fill="#6ea63c"/>
      <rect x="33" y="77" width="4" height="2" fill="#2f6731"/>
      <rect x="58" y="79" width="1" height="1" fill="#2f6731"/>
      <rect x="55" y="79" width="3" height="1" fill="#6ea63c"/>
      <rect x="51" y="79" width="4" height="1" fill="#2f6731"/>
      <rect x="37" y="79" width="2" height="2" fill="#2f6731"/>
      <rect x="39" y="79" width="2" height="2" fill="#6ea63c"/>
      <rect x="51" y="80" width="8" height="1" fill="#2f6731"/>
      <rect x="41" y="79" width="2" height="2" fill="#2f6731"/>
      <rect x="39" y="81" width="2" height="1" fill="#2f6731"/>
      <rect x="55" y="81" width="2" height="1" fill="#2f6731"/>
    </g>
  </g>
</svg>

